# xmcd CD database file generated by OrangeCD 5.1
#
# Track frame offsets:
#	150
#	13390
#	31740
#	45050
#	60052
#	76645
#	94942
#	111080
#	127182
#	144677
#
# Disc length: 2128 seconds
#
# Revision: 0
# Processed by: cddbd v1.4PL0 Copyright (c) Steve Scherf et al.
# Submitted via: OrangeCD 5.1
#
DISCID=73084e0a
DTITLE=John Bunzow - Stories of the Years
DYEAR=1994
DGENRE=Country
TTITLE0=Desolation Road
TTITLE1=Muddy Water Under The Bridge
TTITLE2=One Tear At A Time
TTITLE3=Ain't No Little Thing
TTITLE4=Your Mem'ry Will Keep Me Warm
TTITLE5=Easy As One, Two, Three
TTITLE6=I Was Just A Holiday
TTITLE7=Poison Mem'ries
TTITLE8=Crowded Inside My Heart
TTITLE9=Stories Of The Years
EXTD=
EXTT0=
EXTT1=
EXTT2=
EXTT3=
EXTT4=
EXTT5=
EXTT6=
EXTT7=
EXTT8=
EXTT9=
PLAYORDER=
